<svg width="120" height="44" viewBox="0 0 120 44" fill="none" xmlns="http://www.w3.org/2000/svg">
<path d="M103.351 42.9544C101.353 42.9544 99.7254 42.3069 98.4675 41.012C97.2466 39.6801 96.6361 37.9412 96.6361 35.7953L96.9691 29.4132L96.3586 16.094L103.795 14.7066L103.074 31.5776C103.074 33.1685 103.351 34.3339 103.906 35.0739C104.498 35.8138 105.423 36.1838 106.681 36.1838C107.939 36.1838 109.678 35.5548 111.898 34.2969V30.9671L111.287 16.3715L118.779 14.9841L118.113 28.8582L118.169 33.409C118.169 35.7768 118.779 38.1632 120 40.568L114.229 43.1209C113.008 40.716 112.268 38.7921 112.009 37.3492C108.679 41.086 105.793 42.9544 103.351 42.9544Z" fill="#5149E7"/>
<path d="M87.2327 43.5093L76.7993 28.1368V28.5252L77.4098 41.5669L69.9177 42.9544L70.5837 29.4687L69.9177 1.38742L77.5208 0L76.7993 26.8048L87.8986 14.6511L93.1153 18.2029L83.4034 27.3043L93.5593 39.2916L87.2327 43.5093Z" fill="#5149E7"/>
<path d="M41.4808 31.3554C41.4808 26.6197 42.7573 22.6054 45.3101 19.3126C47.8629 16.0198 50.8413 14.3734 54.2451 14.3734C57.6858 14.3734 60.3497 15.4833 62.2366 17.7032C64.1604 19.9231 65.1224 22.8644 65.1224 26.5272C65.1224 31.4109 63.883 35.4806 61.4041 38.7364C58.9623 41.9552 55.873 43.5646 52.1362 43.5646C49.0654 43.5646 46.5125 42.4177 44.4777 40.1238C42.4798 37.793 41.4808 34.8702 41.4808 31.3554ZM58.9068 29.413C58.9068 24.0483 57.0754 21.366 53.4126 21.366C49.6018 21.366 47.6965 23.8818 47.6965 28.9135C47.6965 31.5404 48.2329 33.5937 49.3059 35.0736C50.3788 36.5535 51.7847 37.2935 53.5236 37.2935C55.2995 37.2935 56.6314 36.6275 57.5193 35.2956C58.4443 33.9267 58.9068 31.9658 58.9068 29.413Z" fill="#5149E7"/>
<path d="M27.3043 36.0173H28.0258L29.8017 28.4143L32.6875 14.7066L39.4581 15.5391L35.4068 29.3022L32.0215 42.2884L22.9201 43.1209L19.8678 29.6352L19.5903 28.7472L15.872 42.2884L7.04807 43.1209L3.82926 29.6352L0 16.1495L7.27005 14.7621L9.54541 26.9714L11.5433 36.0173H12.2647L17.0374 20.2008L15.872 16.1495L23.0311 14.7621L25.3619 26.9714L27.3043 36.0173Z" fill="#5149E7"/>
</svg>
